<?xml version="1.0" encoding="UTF-8"?>
<svg id="Capa_2" data-name="Capa 2" xmlns="http://www.w3.org/2000/svg" viewBox="0 0 490.24 101.7">
  <defs>
    <style>
      .cls-1 {
        fill: #f0f0f0;
      }

      .cls-2 {
        fill: #841468;
        fill-rule: evenodd;
      }
    </style>
  </defs>
  <g id="Capa_2-2" data-name="Capa 2">
    <g>
      <path class="cls-2" d="M490.24,76.39c0,6.7-2.95,12.44-8.83,17.23-5.15,4.2-11.45,6.89-18.87,8.04-.26.03-.49.03-.66.03-.79,0-2.53-2.3-5.28-6.92-2.69-4.63-4.07-7.45-4.07-8.5,0-.36.26-.59.79-.69,4.99-1.08,8.3-2,9.91-2.76,3.58-1.71,5.38-4.27,5.38-7.61,0-2.17-1.18-4.56-3.51-7.19-4.07-4.46-6.27-6.99-6.63-7.45-2.36-3.45-3.54-7.25-3.54-11.39,0-6.04,2.92-11.06,8.73-15.06,4.73-3.28,10.57-5.42,17.49-6.4.36-.03.66-.07.89-.07.53,0,.92.39,1.21,1.18.92,2.4,2.99,6.76,6.27,13.06.1.2.13.36.13.49,0,.56-.3.85-.92.85-.26,0-.72-.03-1.38-.16-.66-.1-1.15-.13-1.51-.13-2.46,0-4.63.53-6.5,1.64-2.23,1.25-3.35,2.99-3.35,5.22,0,2.03,1.21,4.5,3.71,7.45,4.37,5.25,6.66,8.04,6.86,8.3,2.46,3.61,3.68,7.22,3.68,10.83h0ZM62.2,56.21c0,7.98-2.17,14.44-6.53,19.36-4.69,5.28-11.16,7.88-19.36,7.88-1.38,0-3.45-.07-6.24-.2-2.76-.16-4.82-.23-6.2-.23-1.48,0-2.23.59-2.23,1.81,0,1.54.13,3.81.46,6.79.33,2.99.46,5.25.46,6.73,0,.75-.36,1.15-1.08,1.15-2.1,0-5.25-.07-9.45-.2-4.2-.1-7.32-.16-9.42-.16-1.02,0-1.51-.46-1.51-1.41,0-3.68.07-9.16.16-16.51.13-7.35.2-12.83.2-16.51,0-10.34-.46-21.23-1.41-32.66l-.03-.69c-.1-.62.43-.98,1.54-1.15,2.66-.33,8.6-.49,17.76-.49,5.42,0,10.57.07,15.56.2,8.14.23,14.74,2.72,19.72,7.38,5.09,4.82,7.61,11.13,7.61,18.9h0ZM41.63,57c0-7.68-3.91-11.52-11.75-11.52-5.48,0-8.37.3-8.66.89-.23.43-.33,4.23-.33,11.42,0,1.02.03,2.53.1,4.53.1,2,.13,3.48.13,4.53,0,.66,3.12.98,9.32.98,7.45,0,11.19-3.61,11.19-10.83h0ZM90.27,62.57c0,3.91.1,9.75.3,17.56.2,7.84.33,13.69.33,17.59,0,.66-.16,1.05-.46,1.21-.1.03-.56.1-1.35.2-2.26.26-5.25.39-8.99.39-5.02,0-8.24-.13-9.62-.39-.98-.2-1.48-.69-1.48-1.54,0,.53.13-2.36.43-8.7.62-13.36.95-22.12.95-26.32,0-3.51-.13-8.83-.36-15.85-.23-7.09-.36-12.37-.36-15.92,0-.72.39-1.08,1.18-1.08,1.08,0,2.69.07,4.82.16,2.17.1,3.77.13,4.82.13s2.66-.03,4.73-.13c2.1-.1,3.68-.16,4.73-.16s1.51.36,1.51,1.08c0,3.54-.2,8.83-.59,15.92-.39,7.02-.59,12.34-.59,15.85h0ZM169.85,31.26c0,3.77-.13,9.42-.46,16.93-.33,7.55-.49,13.23-.49,17v32.62c0,.89-.53,1.31-1.51,1.31-.82,0-2.07.03-3.74.1-1.67.07-2.92.1-3.74.1-.89,0-2.23-.07-4-.2-1.81-.13-3.15-.2-4.04-.2-.62,0-1.38-.53-2.23-1.61-2.49-3.22-8.04-10.31-16.74-21.3-2.36-3.05-5.97-7.58-10.83-13.55-.13-.2-.39-.39-.79-.59-.26.23-.39.59-.39,1.08,0,3.84.1,9.58.33,17.23.23,7.65.33,13.39.33,17.2,0,1.18-.46,1.74-1.38,1.74h-17.85c-1.02,0-1.51-.49-1.51-1.54,0-3.54.16-8.93.53-16.11.36-7.19.56-12.57.56-16.18,0-3.81-.16-9.45-.49-17.03-.33-7.55-.49-13.19-.49-16.97,0-.72.66-1.08,2-1.08,2,0,4.46-.13,7.38-.39.69-.07,2.07-.26,4.07-.66,1.74-.26,3.09-.43,4.07-.43.43,0,1.08.56,1.94,1.71l19.27,25.27c1.71,2.26,4.33,5.61,7.78,9.98.89,1.02,1.61,1.54,2.23,1.54.43,0,.66-1.28.66-3.87,0-3.45-.16-8.66-.59-15.62-.39-6.96-.59-12.18-.59-15.69,0-1.21.36-1.84,1.08-1.84,2.07,0,5.19-.07,9.35-.23,4.17-.16,7.29-.26,9.35-.26.66,0,.95.53.95,1.54h0ZM229.78,44.89c0,.66-.36.98-1.12.98-1.35,0-6.53-.26-15.56-.75-.23,8.34-.33,14.18-.33,17.46,0,3.91.16,9.75.49,17.56.33,7.84.49,13.69.49,17.59,0,.62-.16,1.02-.46,1.18-.1.07-.59.13-1.44.23-2.07.26-5.09.39-9.09.39-4.43,0-7.55-.13-9.32-.39-.98-.16-1.44-.66-1.44-1.54,0-3.87.13-9.71.49-17.49.33-7.78.53-13.62.53-17.53,0-2.56-.16-8.3-.43-17.23-6.89.66-12.37,1.02-16.48,1.02-.53,0-.82-.16-.82-.49,0-.43.23-1.71.72-3.81.56-2.33.85-3.74.92-4.23.13-1.54.23-3.09.36-4.63.26-2.49.69-3.71,1.25-3.71.07,0,.3,0,.72.03,5.58.69,13.82,1.05,24.75,1.05,3.09,0,8.8-.33,17.13-.95,4.5-.33,6.73-.49,6.79-.49.66,0,1.05.03,1.18.13.1.1.16.39.2.95,0,.92-.03,2.13-.1,3.74-.07,1.74-.1,2.95-.1,3.68,0,.85.1,2.03.33,3.64.23,1.61.33,2.79.33,3.61h0ZM288.2,83.78c0,1.41-.3,4-.89,7.81-.62,4.1-1.18,6.56-1.67,7.35-.39.62-.98.95-1.71.95-.3,0-.82-.07-1.54-.16-2.49-.33-9.85-.49-21.99-.49-2.66,0-6.6,0-11.85-.03-5.22-.03-9.12-.07-11.75-.07-1.15,0-1.71-.46-1.71-1.41,0-3.71.23-9.26.62-16.67.46-7.38.66-12.93.66-16.64s-.2-10.76-.62-21.04c-.1-2.63-.3-6.56-.56-11.82l-.03-.69c-.07-.75.33-1.15,1.28-1.15,2.56,0,6.37.07,11.49.2,5.12.13,8.93.2,11.49.2s6.3-.07,11.36-.2c5.05-.13,8.86-.2,11.36-.2,1.81,0,2.82.66,3.12,1.94.16.75.43,3.05.79,6.92.36,3.81.56,6.14.56,6.99,0,.69-.36,1.05-1.05,1.05-.2,0-.56-.03-1.08-.07-9.16-.72-17.39-1.08-24.68-1.08-1.81,0-2.95.39-3.35,1.25-.2.36-.26,1.64-.26,3.77,0,2.26.36,3.74,1.05,4.46.56.62,1.67.92,3.35.92.33,0,1.02,0,2-.07.98-.03,1.84-.07,2.49-.07,4.33,0,8.7-.1,13.16-.33.39-.03,1.31-.13,2.82-.26,1.18-.13,2.1-.2,2.79-.2.82,0,1.25.39,1.25,1.15,0-.69-.33,1.84-.92,7.55-.3,2.66-.43,5.28-.43,7.94,0,.66-.49.98-1.48.98,0,0-1.58-.16-4.66-.53-1.97-.16-6.43-.26-13.42-.26h-5.48c-1.41,0-2.23.3-2.49.98-.03.16-.03,1.18-.03,3.05,0,2.53.16,4.14.49,4.86.62,1.25,2.82,2,6.63,2.23-.07,0,2.46,0,7.55,0,1.81,0,4.53-.16,8.14-.49,3.58-.3,6.27-.46,8.07-.46.75,0,1.15.59,1.15,1.81h0ZM372.05,97.59c0,1.05-.53,1.54-1.51,1.54h-18.28c-.98,0-1.48-.56-1.48-1.74,0-3.31.1-8.3.36-14.97.26-6.66.39-11.68.39-15,0-.95-.13-1.48-.46-1.54-.39.2-2.69,5.32-6.92,15.29-2.49,5.87-4.96,11.72-7.42,17.56-.36.75-.79,1.21-1.31,1.35-.16.03-.85.07-2.07.07-1.77,0-2.86-.36-3.18-1.02-1.87-3.61-4.3-8.89-7.35-15.82-3.22-7.32-5.68-12.64-7.25-15.88-.1-.16-.23-.33-.49-.56-.23.3-.36.79-.36,1.44,0,3.22.1,8.07.26,14.54.16,6.47.26,11.32.26,14.54,0,1.18-.49,1.74-1.44,1.74h-17.23c-.72,0-1.12-.1-1.28-.33-.16-.2-.23-.56-.23-1.08,0-3.61.16-9.03.53-16.21.36-7.22.56-12.6.56-16.21,0-3.81-.2-10.99-.53-21.5-.03-2.76-.2-6.83-.46-12.24l-.07-.85c0-.66.72-.98,2.2-.98,1.87,0,4.73-.07,8.5-.16,3.81-.1,6.63-.16,8.5-.16.39,0,.92.69,1.61,2.07l15.1,31.7c1.05,2.17,1.97,3.22,2.69,3.22.36,0,1.18-1.25,2.43-3.71,3.48-6.92,8.6-17.36,15.43-31.31.59-1.28,1.21-1.94,1.9-1.94,1.02,0,2.49.07,4.53.16,2.03.1,3.54.13,4.56.13.85,0,2.17-.07,3.97-.23,1.74-.16,3.09-.26,3.94-.26,1.02,0,1.54.39,1.54,1.21,0,3.87-.16,9.68-.43,17.43-.3,7.71-.46,13.55-.46,17.43,0,3.61.16,8.99.46,16.18.33,7.19.49,12.57.49,16.11h0ZM449.77,97.92c0,.59-.46.98-1.31,1.21-1.02.26-4.23.39-9.58.39-4.96,0-8.11-.13-9.52-.39-1.18-.23-1.9-.98-2.2-2.23-1.18-4.73-2.1-7.25-2.76-7.61-.56-.23-5.19-.36-13.85-.36-5.84,0-8.96.16-9.32.46-.59.53-1.25,2.3-1.97,5.28-.66,2.76-1.44,4.23-2.4,4.46-1.18.26-5.09.39-11.75.39-5.28,0-7.91-.46-7.91-1.44,0-.82,3.87-11.36,11.68-31.61,8.4-21.86,13-33.87,13.72-36.04.39-1.28.89-1.9,1.44-1.9.95,0,2.36.1,4.33.26,1.94.16,3.38.23,4.33.23s2.33-.07,4.1-.16c1.84-.1,3.18-.16,4.07-.16.66,0,1.25.53,1.81,1.61,1.67,3.48,6.63,15.36,14.77,35.64,8.17,20.41,12.31,31.05,12.31,31.97h0ZM413.15,52.83c-.72,1.48-1.94,4.59-3.68,9.45-1.84,5.15-2.79,8.17-2.79,9.06,0,.59,1.05.92,3.12.98,1.05.07,2.82.1,5.25.1,2.26,0,3.54-.26,3.77-.79.07-.16.1-.39.1-.69,0-1.08-.79-4.1-2.36-8.99-1.54-4.76-2.69-7.78-3.41-9.12h0Z"/>
      <g>
        <path class="cls-1" d="M27.72,17.11h-3.21V.36h7.52c1.65,0,3.02.53,4.12,1.56,1.12,1.03,1.68,2.32,1.68,3.85s-.55,2.85-1.68,3.88c-1.1,1.03-2.47,1.56-4.12,1.56h-4.31v5.91ZM27.72,3.33v4.91h4.31c1.41,0,2.44-1.05,2.44-2.47s-1.03-2.44-2.44-2.44h-4.31Z"/>
        <path class="cls-1" d="M68.84,17.11V.36h3.21v16.75h-3.21Z"/>
        <path class="cls-1" d="M103.54,17.11V.36h2.85l8.83,11.25V.36h3.09v16.75h-2.85l-8.83-11.23v11.23h-3.09Z"/>
        <path class="cls-1" d="M149,3.33V.36h14.34v2.97h-5.55v13.79h-3.23V3.33h-5.55Z"/>
        <path class="cls-1" d="M205.22.36h3.21v10.03c0,2.01-.69,3.69-2.11,5.05-1.39,1.36-3.14,2.03-5.22,2.03s-3.81-.67-5.22-2.03c-1.39-1.36-2.08-3.04-2.08-5.05V.36h3.21v10.03c0,1.17.38,2.15,1.17,2.94.79.79,1.75,1.17,2.92,1.17s2.15-.38,2.94-1.17c.79-.79,1.17-1.77,1.17-2.94V.36Z"/>
        <path class="cls-1" d="M247.46.36c1.65,0,3.02.53,4.12,1.56,1.12,1.03,1.68,2.32,1.68,3.85,0,2.18-1.24,4.02-3.18,4.88l3.83,6.46h-3.57l-3.52-5.91h-3.9v5.91h-3.21V.36h7.76ZM242.92,3.33v4.91h4.55c1.41,0,2.44-1.05,2.44-2.47s-1.03-2.44-2.44-2.44h-4.55Z"/>
        <path class="cls-1" d="M296.94.36v2.97h-9.14v3.83h7.83v2.97h-7.83v4.02h9.26v2.97h-12.47V.36h12.35Z"/>
        <path class="cls-1" d="M335.74.36c1.65,0,3.02.53,4.12,1.56,1.12,1.03,1.68,2.32,1.68,3.85,0,2.18-1.24,4.02-3.18,4.88l3.83,6.46h-3.57l-3.52-5.91h-3.9v5.91h-3.21V.36h7.76ZM331.19,3.33v4.91h4.55c1.41,0,2.44-1.05,2.44-2.47s-1.03-2.44-2.44-2.44h-4.55Z"/>
        <path class="cls-1" d="M372.86,17.11V.36h3.21v16.75h-3.21Z"/>
        <path class="cls-1" d="M406.39,17.11l7.18-16.75h2.61l7.18,16.75h-3.37l-1.32-3.16h-7.59l-1.32,3.16h-3.37ZM414.89,4.93l-2.56,6.08h5.1l-2.54-6.08Z"/>
        <path class="cls-1" d="M461.87,4.69c-.26-.89-1.36-1.63-2.7-1.63-1.41,0-2.54.79-2.54,1.77,0,.62.5,1.15,1.53,1.58.45.19,1.36.48,2.75.89,1.03.29,1.46.38,2.49.93.5.26.91.57,1.2.89.57.6,1.12,1.72,1.12,3.04,0,1.6-.57,2.9-1.75,3.88-1.15.96-2.63,1.44-4.48,1.44-1.65,0-3.09-.38-4.26-1.15-1.17-.79-1.94-1.75-2.3-2.92l3.21-.96c.26,1.05,1.6,1.94,3.35,1.94s3.02-.79,3.02-1.94c0-.48-.31-.91-.6-1.17-.14-.12-.38-.26-.69-.41-.6-.29-.69-.29-1.34-.5-2.01-.6-3.35-1.08-4.05-1.44-1.6-.86-2.42-2.15-2.42-3.85,0-1.51.53-2.73,1.58-3.66,1.08-.93,2.44-1.41,4.12-1.41,1.46,0,2.75.36,3.83,1.08,1.08.69,1.79,1.6,2.13,2.68l-3.21.93Z"/>
      </g>
    </g>
  </g>
</svg>