<?xml version="1.0" encoding="UTF-8"?>
<svg width="24" height="24" viewBox="0 0 24 24" fill="none" xmlns="http://www.w3.org/2000/svg">
    <path fill-rule="evenodd" clip-rule="evenodd" d="M5 4C3.89543 4 3 4.89543 3 6V18C3 19.1046 3.89543 20 5 20H19C20.1046 20 21 19.1046 21 18V6C21 4.89543 20.1046 4 19 4H5Z" fill="#F4DE00"/>
    <path d="M12 7V9" stroke="#841468" stroke-width="2" stroke-linecap="round"/>
    <path d="M12 15V17" stroke="#841468" stroke-width="2" stroke-linecap="round"/>
    <path d="M14 9.5C14 8.11929 13.1046 7 12 7H10C8.89543 7 8 8.11929 8 9.5C8 10.8807 8.89543 12 10 12H14C15.1046 12 16 13.1193 16 14.5C16 15.8807 15.1046 17 14 17H12C10.8954 17 10 15.8807 10 14.5" stroke="#841468" stroke-width="2" stroke-linecap="round"/>
    <path d="M7 6L17 18" stroke="#841468" stroke-width="2" stroke-linecap="round"/>
</svg> 