<svg width="24" height="24" viewBox="0 0 24 24" fill="none" xmlns="http://www.w3.org/2000/svg">
    <path d="M9 9H9.01M15 15H15.01M16 8L8 16M9.5 9C9.5 9.27614 9.27614 9.5 9 9.5C8.72386 9.5 8.5 9.27614 8.5 9C8.5 8.72386 8.72386 8.5 9 8.5C9.27614 8.5 9.5 8.72386 9.5 9ZM15.5 15C15.5 15.2761 15.2761 15.5 15 15.5C14.7239 15.5 14.5 15.2761 14.5 15C14.5 14.7239 14.7239 14.5 15 14.5C15.2761 14.5 15.5 14.7239 15.5 15Z" stroke="#F4DE00" stroke-width="2" stroke-linecap="round" stroke-linejoin="round"/>
    <path d="M21 12C21 16.9706 16.9706 21 12 21C7.02944 21 3 16.9706 3 12C3 7.02944 7.02944 3 12 3C16.9706 3 21 7.02944 21 12Z" stroke="#F4DE00" stroke-width="2"/>
</svg> 